Preview_AmstlevarItalicNon-Brokn -wght_900.00_wdth_125.00_opsz_144.00.ufo
<glyph name="parenleft" format="2">
  <advance width="905"/>
  <unicode hex="0028"/>
  <outline>
    <contour>
      <point x="117.0" y="706.0" type="qcurve" smooth="yes"/>
      <point x="153.0" y="972.0"/>
      <point x="671.0" y="1436.0"/>
      <point x="972.0" y="1540.0" type="qcurve"/>
      <point x="1035.0" y="1507.0" type="line"/>
      <point x="863.0" y="1392.0"/>
      <point x="619.0" y="965.0"/>
      <point x="579.0" y="709.0" type="qcurve" smooth="yes"/>
      <point x="537.0" y="444.0"/>
      <point x="629.0" y="33.0"/>
      <point x="746.0" y="-90.0" type="qcurve"/>
      <point x="673.0" y="-135.0" type="line"/>
      <point x="401.0" y="-19.0"/>
      <point x="80.0" y="438.0"/>
    </contour>
  </outline>
</glyph>
<glyph name="one" format="2">
  <advance width="979"/>
  <unicode hex="0031"/>
  <outline>
    <contour>
      <point x="114.0" y="25.0" type="line"/>
      <point x="140.0" y="59.0"/>
      <point x="166.0" y="151.0"/>
      <point x="193.0" y="314.0" type="qcurve" smooth="yes"/>
      <point x="342.0" y="1035.0" type="line"/>
      <point x="391.0" y="1284.0" type="line"/>
      <point x="21.0" y="1109.0" type="line"/>
      <point x="-16.0" y="1209.0" type="line"/>
      <point x="725.0" y="1527.0" type="line"/>
      <point x="861.0" y="1443.0" type="line"/>
      <point x="840.0" y="1401.0"/>
      <point x="828.0" y="1303.0"/>
      <point x="814.0" y="1235.0" type="qcurve" smooth="yes"/>
      <point x="701.0" y="714.0" type="line"/>
      <point x="601.0" y="143.0" type="line"/>
      <point x="237.0" y="-33.0" type="line"/>
    </contour>
  </outline>
</glyph>
<glyph name="seven" format="2">
  <advance width="1362"/>
  <unicode hex="0037"/>
  <outline>
    <contour>
      <point x="52.0" y="1104.0" type="line"/>
      <point x="195.0" y="1500.0" type="line"/>
      <point x="1389.0" y="1500.0" type="line"/>
      <point x="1419.0" y="1444.0" type="line"/>
      <point x="1128.0" y="1194.0"/>
      <point x="483.0" y="433.0"/>
      <point x="364.0" y="4.0" type="qcurve"/>
      <point x="125.0" y="-21.0" type="line"/>
      <point x="90.0" y="10.0" type="line"/>
      <point x="263.0" y="442.0"/>
      <point x="647.0" y="895.0"/>
      <point x="1049.0" y="1211.0" type="qcurve"/>
      <point x="1033.0" y="1230.0" type="line"/>
      <point x="198.0" y="1230.0" type="line"/>
      <point x="132.0" y="1104.0" type="line"/>
    </contour>
  </outline>
</glyph>
<glyph name="equal" format="2">
  <advance width="1152"/>
  <unicode hex="003D"/>
  <outline>
    <contour>
      <point x="41.0" y="350.0" type="line"/>
      <point x="41.0" y="530.0" type="line"/>
      <point x="487.0" y="527.0" type="line"/>
      <point x="937.0" y="530.0" type="line"/>
      <point x="937.0" y="350.0" type="line"/>
      <point x="487.0" y="353.0" type="line"/>
    </contour>
    <contour>
      <point x="41.0" y="702.0" type="line"/>
      <point x="41.0" y="882.0" type="line"/>
      <point x="487.0" y="879.0" type="line"/>
      <point x="937.0" y="882.0" type="line"/>
      <point x="937.0" y="702.0" type="line"/>
      <point x="487.0" y="705.0" type="line"/>
    </contour>
  </outline>
</glyph>
<glyph name="at" format="2">
  <advance width="1977"/>
  <unicode hex="0040"/>
  <outline>
    <contour>
      <point x="422.0" y="638.0" type="qcurve" smooth="yes"/>
      <point x="422.0" y="841.0"/>
      <point x="813.0" y="1174.0"/>
      <point x="1053.0" y="1174.0" type="qcurve" smooth="yes"/>
      <point x="1074.0" y="1174.0"/>
      <point x="1159.0" y="1133.0"/>
      <point x="1172.0" y="1108.0" type="qcurve"/>
      <point x="1254.0" y="1230.0" type="line"/>
      <point x="1322.0" y="1230.0" type="line"/>
      <point x="1371.0" y="1099.0" type="line"/>
      <point x="1236.0" y="701.0" type="line"/>
      <point x="1194.0" y="515.0" type="line"/>
      <point x="1191.0" y="483.0"/>
      <point x="1244.0" y="444.0"/>
      <point x="1267.0" y="444.0" type="qcurve" smooth="yes"/>
      <point x="1409.0" y="444.0"/>
      <point x="1710.0" y="671.0"/>
      <point x="1730.0" y="858.0" type="qcurve" smooth="yes"/>
      <point x="1756.0" y="1087.0"/>
      <point x="1417.0" y="1419.0"/>
      <point x="1051.0" y="1419.0" type="qcurve" smooth="yes"/>
      <point x="712.0" y="1419.0"/>
      <point x="215.0" y="1104.0"/>
      <point x="156.0" y="773.0" type="qcurve" smooth="yes"/>
      <point x="87.0" y="401.0"/>
      <point x="407.0" y="49.0"/>
      <point x="737.0" y="49.0" type="qcurve" smooth="yes"/>
      <point x="881.0" y="49.0"/>
      <point x="1114.0" y="91.0"/>
      <point x="1213.0" y="149.0" type="qcurve"/>
      <point x="1242.0" y="112.0" type="line"/>
      <point x="1132.0" y="40.0"/>
      <point x="820.0" y="-50.0"/>
      <point x="726.0" y="-50.0" type="qcurve" smooth="yes"/>
      <point x="359.0" y="-50.0"/>
      <point x="-55.0" y="366.0"/>
      <point x="14.0" y="753.0" type="qcurve" smooth="yes"/>
      <point x="75.0" y="1101.0"/>
      <point x="712.0" y="1540.0"/>
      <point x="1076.0" y="1540.0" type="qcurve" smooth="yes"/>
      <point x="1491.0" y="1540.0"/>
      <point x="1838.0" y="1132.0"/>
      <point x="1798.0" y="859.0" type="qcurve" smooth="yes"/>
      <point x="1762.0" y="614.0"/>
      <point x="1448.0" y="354.0"/>
      <point x="1253.0" y="354.0" type="qcurve" smooth="yes"/>
      <point x="1145.0" y="354.0"/>
      <point x="1060.0" y="444.0"/>
      <point x="1035.0" y="515.0" type="qcurve"/>
      <point x="984.0" y="455.0"/>
      <point x="823.0" y="351.0"/>
      <point x="693.0" y="359.0" type="qcurve" smooth="yes"/>
      <point x="574.0" y="370.0"/>
      <point x="422.0" y="526.0"/>
    </contour>
    <contour>
      <point x="616.0" y="632.0" type="qcurve" smooth="yes"/>
      <point x="616.0" y="569.0"/>
      <point x="728.0" y="497.0"/>
      <point x="769.0" y="497.0" type="qcurve" smooth="yes"/>
      <point x="857.0" y="497.0"/>
      <point x="1030.0" y="606.0"/>
      <point x="1074.0" y="739.0" type="qcurve" smooth="yes"/>
      <point x="1158.0" y="1044.0" type="line"/>
      <point x="1154.0" y="1063.0"/>
      <point x="1076.0" y="1106.0"/>
      <point x="1041.0" y="1106.0" type="qcurve" smooth="yes"/>
      <point x="838.0" y="1106.0"/>
      <point x="616.0" y="762.0"/>
    </contour>
  </outline>
</glyph>
<glyph name="D" format="2">
  <advance width="2078"/>
  <unicode hex="0044"/>
  <outline>
    <contour>
      <point x="-112.0" y="0.0" type="line"/>
      <point x="-103.0" y="55.0" type="line"/>
      <point x="18.0" y="84.0" type="line"/>
      <point x="193.0" y="811.0" type="line"/>
      <point x="325.0" y="1432.0" type="line"/>
      <point x="194.0" y="1441.0" type="line"/>
      <point x="202.0" y="1500.0" type="line"/>
      <point x="1131.0" y="1500.0" type="line" smooth="yes"/>
      <point x="1527.0" y="1500.0"/>
      <point x="1922.0" y="1137.0"/>
      <point x="1892.0" y="751.0" type="qcurve" smooth="yes"/>
      <point x="1864.0" y="381.0"/>
      <point x="1299.0" y="0.0"/>
      <point x="882.0" y="0.0" type="qcurve" smooth="yes"/>
    </contour>
    <contour>
      <point x="544.0" y="87.0" type="line"/>
      <point x="561.0" y="75.0"/>
      <point x="777.0" y="70.0"/>
      <point x="864.0" y="71.0" type="qcurve" smooth="yes"/>
      <point x="1080.0" y="75.0"/>
      <point x="1318.0" y="407.0"/>
      <point x="1355.0" y="787.0" type="qcurve" smooth="yes"/>
      <point x="1384.0" y="1120.0"/>
      <point x="1259.0" y="1458.0"/>
      <point x="1045.0" y="1454.0" type="qcurve" smooth="yes"/>
      <point x="1004.0" y="1452.0"/>
      <point x="879.0" y="1452.0"/>
      <point x="844.0" y="1445.0" type="qcurve"/>
      <point x="693.0" y="759.0" type="line"/>
    </contour>
  </outline>
</glyph>
<glyph name="T" format="2">
  <advance width="1903"/>
  <unicode hex="0054"/>
  <outline>
    <contour>
      <point x="108.0" y="1145.0" type="line"/>
      <point x="177.0" y="1500.0" type="line"/>
      <point x="1884.0" y="1500.0" type="line"/>
      <point x="1815.0" y="1145.0" type="line"/>
      <point x="1713.0" y="1145.0" type="line"/>
      <point x="1652.0" y="1426.0" type="line"/>
      <point x="1298.0" y="1426.0" type="line"/>
      <point x="1271.0" y="1414.0" type="line"/>
      <point x="1130.0" y="754.0" type="line"/>
      <point x="994.0" y="63.0" type="line"/>
      <point x="1170.0" y="55.0" type="line"/>
      <point x="1159.0" y="0.0" type="line"/>
      <point x="283.0" y="0.0" type="line"/>
      <point x="314.0" y="55.0" type="line"/>
      <point x="474.0" y="63.0" type="line"/>
      <point x="616.0" y="754.0" type="line"/>
      <point x="755.0" y="1414.0" type="line"/>
      <point x="738.0" y="1426.0" type="line"/>
      <point x="376.0" y="1426.0" type="line"/>
      <point x="210.0" y="1145.0" type="line"/>
    </contour>
  </outline>
</glyph>
<glyph name="W" format="2">
  <advance width="3110"/>
  <unicode hex="0057"/>
  <outline>
    <contour>
      <point x="153.0" y="1444.0" type="line"/>
      <point x="157.0" y="1500.0" type="line"/>
      <point x="985.0" y="1500.0" type="line"/>
      <point x="981.0" y="1444.0" type="line"/>
      <point x="792.0" y="1412.0" type="line"/>
      <point x="889.0" y="875.0" type="line"/>
      <point x="996.0" y="303.0" type="line"/>
      <point x="998.0" y="303.0" type="line"/>
      <point x="1295.0" y="728.0" type="line"/>
      <point x="1534.0" y="1086.0" type="line"/>
      <point x="1599.0" y="981.0" type="line"/>
      <point x="1365.0" y="630.0" type="line"/>
      <point x="965.0" y="2.0" type="line"/>
      <point x="532.0" y="2.0" type="line"/>
      <point x="403.0" y="818.0" type="line"/>
      <point x="298.0" y="1413.0" type="line"/>
    </contour>
    <contour>
      <point x="1223.0" y="1437.0" type="line"/>
      <point x="1230.0" y="1500.0" type="line"/>
      <point x="2053.0" y="1500.0" type="line"/>
      <point x="2046.0" y="1453.0" type="line"/>
      <point x="1841.0" y="1402.0" type="line"/>
      <point x="1928.0" y="887.0" type="line"/>
      <point x="2006.0" y="312.0" type="line"/>
      <point x="2013.0" y="312.0" type="line"/>
      <point x="2394.0" y="873.0" type="line"/>
      <point x="2771.0" y="1397.0" type="line"/>
      <point x="2596.0" y="1444.0" type="line"/>
      <point x="2614.0" y="1500.0" type="line"/>
      <point x="3187.0" y="1500.0" type="line"/>
      <point x="3169.0" y="1444.0" type="line"/>
      <point x="2901.0" y="1407.0" type="line"/>
      <point x="2506.0" y="852.0" type="line"/>
      <point x="1986.0" y="2.0" type="line"/>
      <point x="1567.0" y="2.0" type="line"/>
      <point x="1479.0" y="804.0" type="line"/>
      <point x="1379.0" y="1402.0" type="line"/>
    </contour>
  </outline>
</glyph>
<glyph name="Z" format="2">
  <advance width="1819"/>
  <unicode hex="005A"/>
  <outline>
    <contour>
      <point x="-64.0" y="0.0" type="line"/>
      <point x="-82.0" y="74.0" type="line"/>
      <point x="614.0" y="822.0" type="line"/>
      <point x="1182.0" y="1423.0" type="line"/>
      <point x="1176.0" y="1430.0" type="line"/>
      <point x="468.0" y="1430.0" type="line"/>
      <point x="250.0" y="1107.0" type="line"/>
      <point x="162.0" y="1107.0" type="line"/>
      <point x="246.0" y="1500.0" type="line"/>
      <point x="1790.0" y="1500.0" type="line"/>
      <point x="1773.0" y="1420.0" type="line"/>
      <point x="1089.0" y="716.0" type="line"/>
      <point x="507.0" y="93.0" type="line"/>
      <point x="508.0" y="83.0" type="line"/>
      <point x="1304.0" y="83.0" type="line"/>
      <point x="1520.0" y="481.0" type="line"/>
      <point x="1634.0" y="481.0" type="line"/>
      <point x="1522.0" y="0.0" type="line"/>
    </contour>
  </outline>
</glyph>
<glyph name="bracketright" format="2">
  <advance width="803"/>
  <unicode hex="005D"/>
  <outline>
    <contour>
      <point x="-174.0" y="-151.0" type="line"/>
      <point x="-166.0" y="-122.0" type="line"/>
      <point x="-6.0" y="-104.0" type="line"/>
      <point x="166.0" y="638.0" type="line"/>
      <point x="339.0" y="1449.0" type="line"/>
      <point x="153.0" y="1468.0" type="line"/>
      <point x="161.0" y="1495.0" type="line"/>
      <point x="791.0" y="1500.0" type="line"/>
      <point x="779.0" y="1469.0" type="line"/>
      <point x="747.0" y="1449.0" type="line"/>
      <point x="570.0" y="638.0" type="line"/>
      <point x="413.0" y="-100.0" type="line"/>
      <point x="429.0" y="-120.0" type="line"/>
      <point x="423.0" y="-151.0" type="line"/>
    </contour>
  </outline>
</glyph>
<glyph name="l" format="2">
  <advance width="957"/>
  <unicode hex="006C"/>
  <outline>
    <contour>
      <point x="94.0" y="-26.0" type="line"/>
      <point x="46.0" y="43.0" type="line"/>
      <point x="174.0" y="604.0" type="line"/>
      <point x="311.0" y="1403.0" type="line"/>
      <point x="77.0" y="1391.0" type="line"/>
      <point x="88.0" y="1472.0" type="line"/>
      <point x="755.0" y="1574.0" type="line"/>
      <point x="787.0" y="1510.0" type="line"/>
      <point x="611.0" y="588.0" type="line"/>
      <point x="522.0" y="129.0" type="line"/>
      <point x="756.0" y="137.0" type="line"/>
      <point x="747.0" y="76.0" type="line"/>
    </contour>
  </outline>
</glyph>
<glyph name="m" format="2">
  <advance width="2863"/>
  <unicode hex="006D"/>
  <outline>
    <contour>
      <point x="28.0" y="16.0" type="line"/>
      <point x="27.0" y="134.0" type="line"/>
      <point x="126.0" y="458.0" type="line"/>
      <point x="189.0" y="807.0" type="line"/>
      <point x="-32.0" y="814.0" type="line"/>
      <point x="-26.0" y="877.0" type="line"/>
      <point x="458.0" y="969.0" type="line"/>
      <point x="658.0" y="955.0" type="line"/>
      <point x="625.0" y="702.0" type="line"/>
      <point x="617.0" y="680.0" type="line"/>
      <point x="518.0" y="194.0" type="line"/>
      <point x="572.0" y="29.0" type="line"/>
    </contour>
    <contour>
      <point x="1051.0" y="-13.0" type="line"/>
      <point x="981.0" y="135.0" type="line"/>
      <point x="1102.0" y="623.0" type="line" smooth="yes"/>
      <point x="1123.0" y="711.0"/>
      <point x="1053.0" y="799.0"/>
      <point x="1034.0" y="799.0" type="qcurve" smooth="yes"/>
      <point x="943.0" y="799.0"/>
      <point x="715.0" y="771.0"/>
      <point x="587.0" y="602.0" type="qcurve"/>
      <point x="567.0" y="667.0" type="line"/>
      <point x="747.0" y="841.0"/>
      <point x="1095.0" y="980.0"/>
      <point x="1288.0" y="980.0" type="qcurve" smooth="yes"/>
      <point x="1434.0" y="980.0"/>
      <point x="1580.0" y="737.0"/>
      <point x="1556.0" y="561.0" type="qcurve" smooth="yes"/>
      <point x="1469.0" y="156.0" type="line"/>
      <point x="1475.0" y="27.0" type="line"/>
    </contour>
    <contour>
      <point x="2036.0" y="-2.0" type="line"/>
      <point x="1937.0" y="142.0" type="line"/>
      <point x="2058.0" y="623.0" type="line" smooth="yes"/>
      <point x="2080.0" y="711.0"/>
      <point x="2009.0" y="799.0"/>
      <point x="1990.0" y="799.0" type="qcurve" smooth="yes"/>
      <point x="1900.0" y="799.0"/>
      <point x="1673.0" y="789.0"/>
      <point x="1543.0" y="644.0" type="qcurve"/>
      <point x="1531.0" y="713.0" type="line"/>
      <point x="1713.0" y="876.0"/>
      <point x="2054.0" y="980.0"/>
      <point x="2246.0" y="980.0" type="qcurve" smooth="yes"/>
      <point x="2390.0" y="980.0"/>
      <point x="2538.0" y="737.0"/>
      <point x="2512.0" y="561.0" type="qcurve" smooth="yes"/>
      <point x="2418.0" y="119.0" type="line"/>
      <point x="2677.0" y="153.0" type="line"/>
      <point x="2668.0" y="91.0" type="line"/>
    </contour>
  </outline>
</glyph>
<glyph name="y" format="2">
  <advance width="1496"/>
  <unicode hex="0079"/>
  <outline>
    <contour>
      <point x="-534.0" y="-417.0" type="line"/>
      <point x="-523.0" y="-370.0" type="line"/>
      <point x="-343.0" y="-365.0" type="line" smooth="yes"/>
      <point x="-172.0" y="-360.0"/>
      <point x="198.0" y="-237.0"/>
      <point x="345.0" y="-133.0" type="qcurve" smooth="yes"/>
      <point x="488.0" y="21.0" type="line"/>
      <point x="269.0" y="45.0" type="line"/>
      <point x="264.0" y="82.0"/>
      <point x="147.0" y="739.0"/>
      <point x="114.0" y="865.0" type="qcurve"/>
      <point x="-79.0" y="860.0" type="line"/>
      <point x="-82.0" y="923.0" type="line"/>
      <point x="337.0" y="975.0" type="line"/>
      <point x="505.0" y="975.0" type="line"/>
      <point x="562.0" y="906.0" type="line"/>
      <point x="699.0" y="148.0" type="line"/>
      <point x="906.0" y="285.0"/>
      <point x="1202.0" y="661.0"/>
      <point x="1202.0" y="650.0" type="qcurve" smooth="yes"/>
      <point x="1202.0" y="681.0"/>
      <point x="1123.0" y="799.0"/>
      <point x="1026.0" y="937.0" type="qcurve" smooth="yes"/>
      <point x="1049.0" y="969.0"/>
      <point x="1124.0" y="1026.0"/>
      <point x="1204.0" y="1026.0" type="qcurve" smooth="yes"/>
      <point x="1297.0" y="1026.0"/>
      <point x="1407.0" y="950.0"/>
      <point x="1407.0" y="828.0" type="qcurve" smooth="yes"/>
      <point x="1407.0" y="623.0"/>
      <point x="1065.0" y="273.0"/>
      <point x="697.0" y="-11.0" type="qcurve" smooth="yes"/>
      <point x="595.0" y="-110.0" type="line" smooth="yes"/>
      <point x="360.0" y="-294.0"/>
      <point x="-81.0" y="-473.0"/>
      <point x="-305.0" y="-479.0" type="qcurve"/>
    </contour>
  </outline>
</glyph>
<glyph name="micro" format="2">
  <advance width="1908"/>
  <unicode hex="00B5"/>
  <outline>
    <contour>
      <point x="-101.0" y="-358.0" type="line"/>
      <point x="-39.0" y="-327.0" type="line"/>
      <point x="0.0" y="-132.0"/>
      <point x="53.0" y="151.0"/>
      <point x="76.0" y="273.0" type="qcurve" smooth="yes"/>
      <point x="172.0" y="811.0" type="line"/>
      <point x="-17.0" y="829.0" type="line"/>
      <point x="-18.0" y="896.0" type="line"/>
      <point x="450.0" y="974.0" type="line"/>
      <point x="609.0" y="969.0" type="line"/>
      <point x="673.0" y="912.0" type="line"/>
      <point x="552.0" y="345.0" type="line" smooth="yes"/>
      <point x="533.0" y="251.0"/>
      <point x="572.0" y="90.0"/>
      <point x="660.0" y="90.0" type="qcurve" smooth="yes"/>
      <point x="730.0" y="90.0"/>
      <point x="918.0" y="126.0"/>
      <point x="1001.0" y="173.0" type="qcurve"/>
      <point x="1149.0" y="833.0" type="line"/>
      <point x="1135.0" y="945.0" type="line"/>
      <point x="1604.0" y="964.0" type="line"/>
      <point x="1647.0" y="895.0" type="line"/>
      <point x="1477.0" y="250.0" type="line"/>
      <point x="1509.0" y="131.0" type="line"/>
      <point x="1717.0" y="152.0" type="line"/>
      <point x="1712.0" y="84.0" type="line"/>
      <point x="1115.0" y="-14.0" type="line"/>
      <point x="1041.0" y="6.0" type="line"/>
      <point x="1012.0" y="133.0" type="line"/>
      <point x="922.0" y="52.0"/>
      <point x="739.0" y="-43.0"/>
      <point x="628.0" y="-43.0" type="qcurve" smooth="yes"/>
      <point x="577.0" y="-43.0"/>
      <point x="477.0" y="-18.0"/>
      <point x="455.0" y="10.0" type="qcurve"/>
      <point x="392.0" y="-312.0" type="line"/>
      <point x="461.0" y="-325.0" type="line"/>
      <point x="454.0" y="-374.0" type="line"/>
      <point x="-93.0" y="-412.0" type="line"/>
    </contour>
  </outline>
</glyph>
<glyph name="onesuperior" format="2">
  <advance width="711"/>
  <unicode hex="00B9"/>
  <outline>
    <contour>
      <point x="75.0" y="717.0" type="line"/>
      <point x="80.0" y="739.0"/>
      <point x="79.0" y="666.0"/>
      <point x="88.0" y="719.0" type="qcurve" smooth="yes"/>
      <point x="182.0" y="1236.0" type="line"/>
      <point x="211.0" y="1396.0" type="line"/>
      <point x="-12.0" y="1284.0" type="line"/>
      <point x="-26.0" y="1355.0" type="line"/>
      <point x="417.0" y="1552.0" type="line"/>
      <point x="503.0" y="1516.0" type="line"/>
      <point x="484.0" y="1500.0"/>
      <point x="471.0" y="1414.0"/>
      <point x="469.0" y="1401.0" type="qcurve" smooth="yes"/>
      <point x="370.0" y="876.0" type="line"/>
      <point x="359.0" y="784.0" type="line"/>
      <point x="133.0" y="686.0" type="line"/>
    </contour>
  </outline>
</glyph>
<glyph name="peseta" format="2">
  <advance width="4025"/>
  <unicode hex="20A7"/>
  <outline>
    <contour>
      <point x="-112.0" y="0.0" type="line"/>
      <point x="-83.0" y="55.0" type="line"/>
      <point x="55.0" y="78.0" type="line"/>
      <point x="228.0" y="836.0" type="line"/>
      <point x="350.0" y="1409.0" type="line"/>
      <point x="152.0" y="1442.0" type="line"/>
      <point x="161.0" y="1500.0" type="line"/>
      <point x="1339.0" y="1500.0" type="line" smooth="yes"/>
      <point x="1559.0" y="1500.0"/>
      <point x="1806.0" y="1280.0"/>
      <point x="1787.0" y="1065.0" type="qcurve" smooth="yes"/>
      <point x="1766.0" y="835.0"/>
      <point x="1443.0" y="512.0"/>
      <point x="1001.0" y="512.0" type="qcurve" smooth="yes"/>
      <point x="920.0" y="512.0"/>
      <point x="620.0" y="528.0"/>
      <point x="580.0" y="546.0" type="qcurve"/>
      <point x="594.0" y="630.0" type="line"/>
      <point x="645.0" y="613.0"/>
      <point x="879.0" y="593.0"/>
      <point x="903.0" y="593.0" type="qcurve" smooth="yes"/>
      <point x="1116.0" y="593.0"/>
      <point x="1318.0" y="847.0"/>
      <point x="1346.0" y="1043.0" type="qcurve" smooth="yes"/>
      <point x="1369.0" y="1222.0"/>
      <point x="1276.0" y="1432.0"/>
      <point x="1117.0" y="1432.0" type="qcurve" smooth="yes"/>
      <point x="865.0" y="1432.0" type="line"/>
      <point x="832.0" y="1408.0" type="line"/>
      <point x="684.0" y="764.0" type="line"/>
      <point x="541.0" y="85.0" type="line"/>
      <point x="710.0" y="55.0" type="line"/>
      <point x="689.0" y="0.0" type="line"/>
    </contour>
    <contour>
      <point x="1787.0" y="-13.0" type="line"/>
      <point x="1761.0" y="39.0" type="line"/>
      <point x="1918.0" y="809.0" type="line"/>
      <point x="1899.0" y="894.0" type="line"/>
      <point x="1710.0" y="827.0" type="line"/>
      <point x="1710.0" y="935.0" type="line"/>
      <point x="2006.0" y="996.0"/>
      <point x="2209.0" y="1268.0"/>
      <point x="2203.0" y="1226.0" type="qcurve"/>
      <point x="2332.0" y="1235.0" type="line"/>
      <point x="2371.0" y="1193.0" type="line"/>
      <point x="2271.0" y="400.0" type="line"/>
      <point x="2230.0" y="160.0" type="line"/>
      <point x="2467.0" y="159.0" type="line"/>
      <point x="2462.0" y="95.0" type="line"/>
    </contour>
    <contour>
      <point x="2284.0" y="894.0" type="line"/>
      <point x="2290.0" y="967.0" type="line"/>
      <point x="2647.0" y="973.0" type="line"/>
      <point x="2651.0" y="904.0" type="line"/>
    </contour>
    <contour>
      <point x="2443.0" y="184.0" type="qcurve" smooth="yes"/>
      <point x="2436.0" y="241.0"/>
      <point x="2536.0" y="306.0"/>
      <point x="2638.0" y="306.0" type="qcurve" smooth="yes"/>
      <point x="2669.0" y="306.0" type="line"/>
      <point x="2687.0" y="238.0" type="line" smooth="yes"/>
      <point x="2692.0" y="144.0"/>
      <point x="2911.0" y="56.0"/>
      <point x="3054.0" y="56.0" type="qcurve" smooth="yes"/>
      <point x="3238.0" y="56.0"/>
      <point x="3418.0" y="122.0"/>
      <point x="3415.0" y="163.0" type="qcurve" smooth="yes"/>
      <point x="3412.0" y="210.0"/>
      <point x="3258.0" y="238.0"/>
      <point x="3025.0" y="317.0" type="qcurve" smooth="yes"/>
      <point x="2767.0" y="403.0"/>
      <point x="2580.0" y="579.0"/>
      <point x="2583.0" y="708.0" type="qcurve" smooth="yes"/>
      <point x="2586.0" y="860.0"/>
      <point x="2887.0" y="1006.0"/>
      <point x="3231.0" y="1006.0" type="qcurve" smooth="yes"/>
      <point x="3484.0" y="1006.0"/>
      <point x="3768.0" y="893.0"/>
      <point x="3775.0" y="823.0" type="qcurve" smooth="yes"/>
      <point x="3780.0" y="770.0"/>
      <point x="3653.0" y="759.0"/>
      <point x="3609.0" y="759.0" type="qcurve" smooth="yes"/>
      <point x="3570.0" y="774.0" type="line"/>
      <point x="3556.0" y="824.0" type="line" smooth="yes"/>
      <point x="3554.0" y="872.0"/>
      <point x="3349.0" y="940.0"/>
      <point x="3208.0" y="940.0" type="qcurve" smooth="yes"/>
      <point x="3042.0" y="940.0"/>
      <point x="2907.0" y="878.0"/>
      <point x="2911.0" y="827.0" type="qcurve" smooth="yes"/>
      <point x="2916.0" y="800.0"/>
      <point x="3053.0" y="747.0"/>
      <point x="3285.0" y="667.0" type="qcurve" smooth="yes"/>
      <point x="3523.0" y="585.0"/>
      <point x="3707.0" y="472.0"/>
      <point x="3710.0" y="387.0" type="qcurve" smooth="yes"/>
      <point x="3715.0" y="198.0"/>
      <point x="3360.0" y="-7.0"/>
      <point x="3036.0" y="-7.0" type="qcurve" smooth="yes"/>
      <point x="2749.0" y="-7.0"/>
      <point x="2451.0" y="74.0"/>
    </contour>
  </outline>
</glyph>
<glyph name="guarani" format="2">
  <advance width="1617"/>
  <unicode hex="20B2"/>
  <outline>
    <contour>
      <point x="535.0" y="-180.0" type="line"/>
      <point x="605.0" y="40.0" type="line"/>
      <point x="601.0" y="40.0" type="line"/>
      <point x="814.0" y="783.0" type="line"/>
      <point x="879.0" y="768.0" type="line"/>
      <point x="666.0" y="25.0" type="line"/>
      <point x="663.0" y="25.0" type="line"/>
      <point x="600.0" y="-185.0" type="line"/>
    </contour>
    <contour>
      <point x="1049.0" y="1591.0" type="line"/>
      <point x="1111.0" y="1590.0" type="line"/>
      <point x="1072.0" y="1446.0" type="line"/>
      <point x="1074.0" y="1446.0" type="line"/>
      <point x="878.0" y="769.0" type="line"/>
      <point x="814.0" y="783.0" type="line"/>
      <point x="1008.0" y="1462.0" type="line"/>
      <point x="1011.0" y="1462.0" type="line"/>
    </contour>
    <contour>
      <point x="21.0" y="744.0" type="qcurve" smooth="yes"/>
      <point x="57.0" y="1112.0"/>
      <point x="560.0" y="1513.0"/>
      <point x="1009.0" y="1501.0" type="qcurve" smooth="yes"/>
      <point x="1251.0" y="1498.0"/>
      <point x="1512.0" y="1255.0"/>
      <point x="1534.0" y="1062.0" type="qcurve"/>
      <point x="1320.0" y="1062.0" type="line"/>
      <point x="1338.0" y="1214.0"/>
      <point x="1148.0" y="1399.0"/>
      <point x="989.0" y="1396.0" type="qcurve" smooth="yes"/>
      <point x="804.0" y="1384.0"/>
      <point x="504.0" y="1159.0"/>
      <point x="454.0" y="766.0" type="qcurve" smooth="yes"/>
      <point x="411.0" y="397.0"/>
      <point x="559.0" y="55.0"/>
      <point x="811.0" y="54.0" type="qcurve" smooth="yes"/>
      <point x="881.0" y="57.0"/>
      <point x="1041.0" y="121.0"/>
      <point x="1094.0" y="155.0" type="qcurve"/>
      <point x="1174.0" y="581.0" type="line"/>
      <point x="1005.0" y="615.0" type="line"/>
      <point x="1018.0" y="677.0" type="line"/>
      <point x="1501.0" y="677.0" type="line"/>
      <point x="1421.0" y="208.0" type="line"/>
      <point x="1400.0" y="198.0" type="line"/>
      <point x="1265.0" y="95.0"/>
      <point x="989.0" y="-17.0"/>
      <point x="753.0" y="-21.0" type="qcurve" smooth="yes"/>
      <point x="357.0" y="-26.0"/>
      <point x="-26.0" y="335.0"/>
    </contour>
  </outline>
</glyph>
<glyph name="brevecombstack.case" format="2">
  <advance width="896"/>
  <outline>
    <contour>
      <point x="913.0" y="1851.0" type="qcurve"/>
      <point x="935.0" y="1856.0" type="line"/>
      <point x="900.0" y="1773.0"/>
      <point x="648.0" y="1580.0"/>
      <point x="539.0" y="1580.0" type="qcurve" smooth="yes"/>
      <point x="396.0" y="1580.0"/>
      <point x="273.0" y="1753.0"/>
      <point x="324.0" y="1881.0" type="qcurve"/>
      <point x="320.0" y="1871.0" type="line"/>
      <point x="342.0" y="1804.0"/>
      <point x="482.0" y="1725.0"/>
      <point x="579.0" y="1725.0" type="qcurve" smooth="yes"/>
      <point x="707.0" y="1725.0"/>
      <point x="899.0" y="1835.0"/>
    </contour>
  </outline>
</glyph>
<glyph name="dblgravecomb" format="2">
  <advance width="896"/>
  <outline>
    <contour>
      <point x="-184.0" y="1229.0" type="qcurve" smooth="yes"/>
      <point x="-197.0" y="1260.0"/>
      <point x="-133.0" y="1341.0"/>
      <point x="-90.0" y="1354.0" type="qcurve" smooth="yes"/>
      <point x="-52.0" y="1368.0"/>
      <point x="59.0" y="1335.0"/>
      <point x="110.0" y="1299.0" type="qcurve" smooth="yes"/>
      <point x="368.0" y="1147.0" type="line"/>
      <point x="374.0" y="1063.0" type="line"/>
      <point x="-52.0" y="1123.0" type="line" smooth="yes"/>
      <point x="-116.0" y="1130.0"/>
      <point x="-173.0" y="1195.0"/>
    </contour>
    <contour>
      <point x="378.0" y="1253.0" type="qcurve" smooth="yes"/>
      <point x="363.0" y="1284.0"/>
      <point x="426.0" y="1365.0"/>
      <point x="469.0" y="1377.0" type="qcurve" smooth="yes"/>
      <point x="507.0" y="1393.0"/>
      <point x="604.0" y="1363.0"/>
      <point x="653.0" y="1330.0" type="qcurve" smooth="yes"/>
      <point x="917.0" y="1174.0" type="line"/>
      <point x="923.0" y="1087.0" type="line"/>
      <point x="491.0" y="1154.0" type="line" smooth="yes"/>
      <point x="427.0" y="1162.0"/>
      <point x="386.0" y="1218.0"/>
    </contour>
  </outline>
</glyph>
<glyph name="dieresisbelowcomb" format="2">
  <advance width="896"/>
  <outline>
    <contour>
      <point x="399.0" y="-289.0" type="qcurve" smooth="yes"/>
      <point x="399.0" y="-224.0"/>
      <point x="480.0" y="-146.0"/>
      <point x="547.0" y="-146.0" type="qcurve" smooth="yes"/>
      <point x="613.0" y="-146.0"/>
      <point x="695.0" y="-226.0"/>
      <point x="695.0" y="-289.0" type="qcurve" smooth="yes"/>
      <point x="695.0" y="-354.0"/>
      <point x="615.0" y="-433.0"/>
      <point x="547.0" y="-433.0" type="qcurve" smooth="yes"/>
      <point x="481.0" y="-433.0"/>
      <point x="399.0" y="-353.0"/>
    </contour>
    <contour>
      <point x="-31.0" y="-289.0" type="qcurve" smooth="yes"/>
      <point x="-31.0" y="-224.0"/>
      <point x="49.0" y="-146.0"/>
      <point x="117.0" y="-146.0" type="qcurve" smooth="yes"/>
      <point x="183.0" y="-146.0"/>
      <point x="265.0" y="-226.0"/>
      <point x="265.0" y="-289.0" type="qcurve" smooth="yes"/>
      <point x="265.0" y="-354.0"/>
      <point x="184.0" y="-433.0"/>
      <point x="117.0" y="-433.0" type="qcurve" smooth="yes"/>
      <point x="51.0" y="-433.0"/>
      <point x="-31.0" y="-353.0"/>
    </contour>
  </outline>
</glyph>
<glyph name="dotaccentcombstack.case" format="2">
  <advance width="896"/>
  <outline>
    <contour>
      <point x="399.0" y="1763.0" type="qcurve" smooth="yes"/>
      <point x="399.0" y="1841.0"/>
      <point x="464.0" y="1907.0"/>
      <point x="543.0" y="1907.0" type="qcurve" smooth="yes"/>
      <point x="615.0" y="1907.0"/>
      <point x="687.0" y="1831.0"/>
      <point x="687.0" y="1763.0" type="qcurve" smooth="yes"/>
      <point x="687.0" y="1688.0"/>
      <point x="628.0" y="1619.0"/>
      <point x="543.0" y="1619.0" type="qcurve" smooth="yes"/>
      <point x="473.0" y="1619.0"/>
      <point x="399.0" y="1695.0"/>
    </contour>
  </outline>
</glyph>
<glyph name="dotbelowcomb.case" format="2">
  <advance width="896"/>
  <outline>
    <contour>
      <point x="123.0" y="-284.0" type="qcurve" smooth="yes"/>
      <point x="123.0" y="-202.0"/>
      <point x="184.0" y="-141.0"/>
      <point x="266.0" y="-141.0" type="qcurve" smooth="yes"/>
      <point x="337.0" y="-141.0"/>
      <point x="409.0" y="-217.0"/>
      <point x="409.0" y="-284.0" type="qcurve" smooth="yes"/>
      <point x="409.0" y="-365.0"/>
      <point x="350.0" y="-427.0"/>
      <point x="266.0" y="-427.0" type="qcurve" smooth="yes"/>
      <point x="196.0" y="-427.0"/>
      <point x="123.0" y="-352.0"/>
    </contour>
  </outline>
</glyph>
<glyph name="engtail" format="2">
  <advance width="1246"/>
  <outline>
    <contour>
      <point x="10.0" y="-248.0" type="qcurve"/>
      <point x="63.0" y="-196.0" type="line"/>
      <point x="97.0" y="-237.0"/>
      <point x="152.0" y="-266.0"/>
      <point x="193.0" y="-266.0" type="qcurve" smooth="yes"/>
      <point x="257.0" y="-266.0"/>
      <point x="342.0" y="-246.0"/>
      <point x="363.0" y="-147.0" type="qcurve" smooth="yes"/>
      <point x="423.0" y="138.0" type="line"/>
      <point x="524.0" y="196.0" type="line"/>
      <point x="909.0" y="196.0" type="line"/>
      <point x="859.0" y="-106.0" type="line" smooth="yes"/>
      <point x="828.0" y="-269.0"/>
      <point x="626.0" y="-419.0"/>
      <point x="395.0" y="-419.0" type="qcurve" smooth="yes"/>
      <point x="211.0" y="-419.0"/>
      <point x="45.0" y="-318.0"/>
    </contour>
  </outline>
</glyph>
